<svg xmlns="http://www.w3.org/2000/svg" xmlns:xlink="http://www.w3.org/1999/xlink" width="1587" zoomAndPan="magnify" viewBox="0 0 1190.25 1683.749945" height="2245" preserveAspectRatio="xMidYMid meet" version="1.0"><defs><clipPath id="79c72e610f"><path d="M 161 0.40625 L 966 0.40625 L 966 306 L 161 306 Z M 161 0.40625 " clip-rule="nonzero"/></clipPath></defs><path fill="#45291d" d="M 1056.859375 1075.636719 C 1056.859375 1340.472656 842.148438 1555.160156 577.289062 1555.160156 C 312.410156 1555.160156 97.71875 1340.472656 97.71875 1075.636719 C 97.71875 810.800781 312.410156 596.113281 577.289062 596.113281 C 842.148438 596.113281 1056.859375 810.800781 1056.859375 1075.636719 " fill-opacity="1" fill-rule="nonzero"/><path fill="#45291d" d="M 961.289062 699.769531 C 961.289062 911.832031 789.371094 1083.734375 577.289062 1083.734375 C 365.207031 1083.734375 193.289062 911.832031 193.289062 699.769531 C 193.289062 487.707031 365.207031 315.808594 577.289062 315.808594 C 789.371094 315.808594 961.289062 487.707031 961.289062 699.769531 " fill-opacity="1" fill-rule="nonzero"/><path fill="#281619" d="M 580.25 463.96875 C 450.984375 463.96875 353.117188 490.25 281.519531 551.695312 C 244.195312 583.65625 221.066406 630.699219 221.066406 682.773438 C 221.066406 780.019531 302.511719 858.863281 402.972656 858.863281 C 479.667969 858.863281 545.117188 812.851562 571.875 747.832031 C 596.878906 816.214844 664.152344 865.292969 743.425781 865.292969 C 844.023438 865.292969 925.558594 786.429688 925.558594 689.1875 C 925.558594 644.105469 906.109375 604.644531 879.230469 571.792969 C 829.078125 510.574219 704.59375 463.96875 580.25 463.96875 " fill-opacity="1" fill-rule="nonzero"/><path fill="#45291d" d="M 247.070312 513.414062 C 247.070312 513.414062 199.109375 406.128906 202.578125 381.828125 C 206.066406 357.492188 361.390625 381.828125 361.390625 381.828125 " fill-opacity="1" fill-rule="nonzero"/><path fill="#45291d" d="M 540.195312 1500.40625 C 540.195312 1500.40625 464.792969 1590.539062 441.417969 1598.089844 C 418.023438 1605.625 371.78125 1455.359375 371.78125 1455.359375 L 540.195312 1500.40625 " fill-opacity="1" fill-rule="nonzero"/><path fill="#45291d" d="M 907.511719 513.414062 C 907.511719 513.414062 955.453125 406.128906 951.984375 381.828125 C 948.515625 357.492188 793.171875 381.828125 793.171875 381.828125 " fill-opacity="1" fill-rule="nonzero"/><path fill="#3f252b" d="M 82.511719 1092.929688 C 73.871094 1157.832031 79.144531 1293.726562 45.746094 1308.390625 C 24.019531 1317.941406 17.414062 1159.195312 26.035156 1094.28125 C 34.65625 1029.363281 55.964844 933.785156 95.496094 933.785156 C 115.085938 933.785156 91.132812 1028.015625 82.511719 1092.929688 " fill-opacity="1" fill-rule="nonzero"/><path fill="#3f252b" d="M 128.121094 1148.964844 C 121.605469 1214.109375 124.757812 1349.757812 91.359375 1364.425781 C 69.613281 1373.972656 66.652344 1215.617188 71.644531 1150.296875 C 81.195312 1025.175781 109.074219 926.128906 148.625 926.128906 C 168.199219 926.128906 138.550781 1044.730469 128.121094 1148.964844 " fill-opacity="1" fill-rule="nonzero"/><path fill="#3f252b" d="M 178.378906 1173.722656 C 171.859375 1238.867188 175.03125 1374.5 141.632812 1389.183594 C 119.886719 1398.730469 116.925781 1240.375 121.917969 1175.054688 C 131.46875 1049.917969 155.054688 871.410156 194.585938 871.410156 C 214.160156 871.410156 188.804688 1069.488281 178.378906 1173.722656 " fill-opacity="1" fill-rule="nonzero"/><path fill="#3f252b" d="M 234.382812 1121.28125 C 227.863281 1186.460938 227.984375 1318.011719 194.585938 1332.695312 C 172.839844 1342.242188 169.054688 1240.375 174.03125 1175.054688 C 183.601562 1049.917969 182.585938 827.484375 222.117188 827.484375 C 241.707031 827.484375 244.789062 1017.046875 234.382812 1121.28125 " fill-opacity="1" fill-rule="nonzero"/><path fill="#281619" d="M 167.234375 930.910156 C 163.34375 942.371094 158.507812 953.585938 153.511719 964.34375 C 149.640625 972.734375 146.679688 986.960938 136.796875 990.222656 C 130.609375 992.269531 122.007812 990.535156 121.007812 983.617188 C 114.683594 982.546875 114.59375 1002.3125 113.121094 1007.621094 C 110.949219 1015.609375 107.671875 1023.984375 104.027344 1031.238281 C 99.964844 1039.316406 85.945312 1063.792969 77.726562 1046.378906 C 72.117188 1061.199219 73.222656 1071.730469 60.660156 1082.769531 C 50.617188 1091.582031 38.421875 1104.285156 24.105469 1105.179688 C 0.398438 1106.667969 27.3125 916.367188 57.75 858.375 C 88.171875 800.394531 141.71875 740.140625 199.703125 770.574219 C 215.703125 778.949219 227.707031 795.683594 224.253906 814.535156 C 222.660156 823.242188 217.804688 831.390625 215.808594 840.152344 C 213.230469 851.363281 212.320312 862.648438 207.34375 873.195312 C 199.527344 889.71875 194.238281 902.542969 174.277344 903.683594 C 172.769531 912.8125 170.300781 921.957031 167.234375 930.910156 " fill-opacity="1" fill-rule="nonzero"/><path fill="#3f252b" d="M 1081.691406 1092.929688 C 1090.3125 1157.832031 1085.035156 1293.726562 1118.433594 1308.390625 C 1140.179688 1317.941406 1146.789062 1159.195312 1138.148438 1094.28125 C 1129.527344 1029.363281 1108.21875 933.785156 1068.6875 933.785156 C 1049.097656 933.785156 1073.050781 1028.015625 1081.691406 1092.929688 " fill-opacity="1" fill-rule="nonzero"/><path fill="#3f252b" d="M 1036.078125 1148.964844 C 1042.597656 1214.109375 1039.425781 1349.757812 1072.824219 1364.425781 C 1094.570312 1373.972656 1097.53125 1215.617188 1092.535156 1150.296875 C 1082.984375 1025.175781 1055.105469 926.128906 1015.574219 926.128906 C 995.984375 926.128906 1025.652344 1044.730469 1036.078125 1148.964844 " fill-opacity="1" fill-rule="nonzero"/><path fill="#3f252b" d="M 985.804688 1173.722656 C 992.320312 1238.867188 989.152344 1374.5 1022.550781 1389.183594 C 1044.3125 1398.730469 1047.257812 1240.375 1042.28125 1175.054688 C 1032.710938 1049.917969 1009.144531 871.410156 969.59375 871.410156 C 950.023438 871.410156 975.378906 1069.488281 985.804688 1173.722656 " fill-opacity="1" fill-rule="nonzero"/><path fill="#3f252b" d="M 929.816406 1121.28125 C 936.320312 1186.460938 936.195312 1318.011719 969.59375 1332.695312 C 991.339844 1342.242188 995.144531 1240.375 990.148438 1175.054688 C 980.597656 1049.917969 981.597656 827.484375 942.082031 827.484375 C 922.492188 827.484375 919.375 1017.046875 929.816406 1121.28125 " fill-opacity="1" fill-rule="nonzero"/><path fill="#281619" d="M 996.929688 930.910156 C 1000.839844 942.371094 1005.675781 953.585938 1010.667969 964.34375 C 1014.558594 972.734375 1017.484375 986.960938 1027.386719 990.222656 C 1033.589844 992.269531 1042.175781 990.535156 1043.175781 983.617188 C 1049.480469 982.546875 1049.605469 1002.3125 1051.058594 1007.621094 C 1053.25 1015.609375 1056.507812 1023.984375 1060.171875 1031.238281 C 1064.21875 1039.316406 1078.253906 1063.792969 1086.457031 1046.378906 C 1092.0625 1061.199219 1090.960938 1071.730469 1103.523438 1082.769531 C 1113.5625 1091.582031 1125.777344 1104.285156 1140.078125 1105.179688 C 1163.785156 1106.667969 1136.871094 916.367188 1106.449219 858.375 C 1076.011719 800.394531 1022.480469 740.140625 964.476562 770.574219 C 948.480469 778.949219 936.476562 795.683594 939.929688 814.535156 C 941.523438 823.242188 946.375 831.390625 948.390625 840.152344 C 950.933594 851.363281 951.863281 862.648438 956.839844 873.195312 C 964.652344 889.71875 969.945312 902.542969 989.902344 903.683594 C 991.410156 912.8125 993.882812 921.957031 996.929688 930.910156 " fill-opacity="1" fill-rule="nonzero"/><path fill="#eef0d4" d="M 877.089844 691.515625 C 877.089844 775.390625 809.085938 843.375 725.21875 843.375 C 641.335938 843.375 573.328125 775.390625 573.328125 691.515625 C 573.328125 607.625 641.335938 539.640625 725.21875 539.640625 C 809.085938 539.640625 877.089844 607.625 877.089844 691.515625 " fill-opacity="1" fill-rule="nonzero"/><path fill="#f9a72b" d="M 827.710938 706.042969 C 827.710938 770.679688 775.316406 823.085938 710.675781 823.085938 C 646.03125 823.085938 593.640625 770.679688 593.640625 706.042969 C 593.640625 641.421875 646.03125 589.015625 710.675781 589.015625 C 775.316406 589.015625 827.710938 641.421875 827.710938 706.042969 " fill-opacity="1" fill-rule="nonzero"/><path fill="#281619" d="M 797.238281 706.042969 C 797.238281 753.859375 758.496094 792.617188 710.675781 792.617188 C 662.855469 792.617188 624.109375 753.859375 624.109375 706.042969 C 624.109375 658.246094 662.855469 619.488281 710.675781 619.488281 C 758.496094 619.488281 797.238281 658.246094 797.238281 706.042969 " fill-opacity="1" fill-rule="nonzero"/><path fill="#eef0d4" d="M 721.75 658.277344 C 721.75 673.574219 709.359375 685.980469 694.0625 685.980469 C 678.746094 685.980469 666.359375 673.574219 666.359375 658.277344 C 666.359375 642.984375 678.746094 630.578125 694.0625 630.578125 C 709.359375 630.578125 721.75 642.984375 721.75 658.277344 " fill-opacity="1" fill-rule="nonzero"/><path fill="#eef0d4" d="M 738.921875 685.980469 C 738.921875 695.460938 731.230469 703.132812 721.75 703.132812 C 712.269531 703.132812 704.59375 695.460938 704.59375 685.980469 C 704.59375 676.5 712.269531 668.808594 721.75 668.808594 C 731.230469 668.808594 738.921875 676.5 738.921875 685.980469 " fill-opacity="1" fill-rule="nonzero"/><path fill="#eef0d4" d="M 573.328125 685.980469 C 573.328125 769.855469 505.324219 837.839844 421.441406 837.839844 C 337.558594 837.839844 269.550781 769.855469 269.550781 685.980469 C 269.550781 602.089844 337.558594 534.105469 421.441406 534.105469 C 505.324219 534.105469 573.328125 602.089844 573.328125 685.980469 " fill-opacity="1" fill-rule="nonzero"/><path fill="#f9a72b" d="M 523.933594 700.523438 C 523.933594 765.140625 471.539062 817.53125 406.894531 817.53125 C 342.253906 817.53125 289.859375 765.140625 289.859375 700.523438 C 289.859375 635.886719 342.253906 583.5 406.894531 583.5 C 471.539062 583.5 523.933594 635.886719 523.933594 700.523438 " fill-opacity="1" fill-rule="nonzero"/><path fill="#281619" d="M 493.460938 700.523438 C 493.460938 748.320312 454.714844 787.0625 406.894531 787.0625 C 359.09375 787.0625 320.332031 748.320312 320.332031 700.523438 C 320.332031 652.707031 359.09375 613.949219 406.894531 613.949219 C 454.714844 613.949219 493.460938 652.707031 493.460938 700.523438 " fill-opacity="1" fill-rule="nonzero"/><path fill="#eef0d4" d="M 417.96875 652.742188 C 417.96875 668.039062 405.582031 680.445312 390.285156 680.445312 C 374.988281 680.445312 362.582031 668.039062 362.582031 652.742188 C 362.582031 637.429688 374.988281 625.042969 390.285156 625.042969 C 405.582031 625.042969 417.96875 637.429688 417.96875 652.742188 " fill-opacity="1" fill-rule="nonzero"/><path fill="#eef0d4" d="M 435.144531 680.445312 C 435.144531 689.90625 427.449219 697.578125 417.96875 697.578125 C 408.492188 697.578125 400.816406 689.90625 400.816406 680.445312 C 400.816406 670.964844 408.492188 663.273438 417.96875 663.273438 C 427.449219 663.273438 435.144531 670.964844 435.144531 680.445312 " fill-opacity="1" fill-rule="nonzero"/><path fill="#f68712" d="M 564.972656 957.457031 C 547.167969 957.457031 475.917969 843.148438 475.917969 843.148438 C 475.917969 843.148438 538.457031 841.394531 561.921875 811.871094 C 575.816406 836.191406 654.023438 843.148438 654.023438 843.148438 C 654.023438 843.148438 582.773438 957.457031 564.972656 957.457031 " fill-opacity="1" fill-rule="nonzero"/><path fill="#f68712" d="M 412.257812 1660.761719 C 413.519531 1675.113281 385.359375 1677.214844 383.539062 1660.761719 C 381.714844 1644.3125 376.773438 1614.3125 383.539062 1590.679688 C 390.300781 1567.042969 400.253906 1561.136719 407.300781 1558.160156 C 414.324219 1555.214844 441.292969 1558.367188 433.09375 1563.640625 C 424.890625 1568.953125 417.691406 1569.144531 412.257812 1590.679688 C 406.808594 1612.210938 410.980469 1646.394531 412.257812 1660.761719 " fill-opacity="1" fill-rule="nonzero"/><path fill="#f68712" d="M 440.976562 1660.761719 C 442.238281 1675.113281 414.082031 1677.214844 412.257812 1660.761719 C 410.417969 1644.3125 405.496094 1614.3125 412.257812 1590.679688 C 419.003906 1567.042969 428.976562 1561.136719 436.019531 1558.160156 C 443.046875 1555.214844 469.996094 1558.367188 461.796875 1563.640625 C 453.59375 1568.953125 446.410156 1569.144531 440.976562 1590.679688 C 435.527344 1612.210938 439.699219 1646.394531 440.976562 1660.761719 " fill-opacity="1" fill-rule="nonzero"/><path fill="#f68712" d="M 469.679688 1660.761719 C 470.941406 1675.113281 442.785156 1677.214844 440.976562 1660.761719 C 439.136719 1644.3125 434.214844 1614.3125 440.976562 1590.679688 C 447.726562 1567.042969 457.679688 1561.136719 464.722656 1558.160156 C 471.75 1555.214844 498.714844 1558.367188 490.515625 1563.640625 C 482.296875 1568.953125 475.128906 1569.144531 469.679688 1590.679688 C 464.230469 1612.210938 468.402344 1646.394531 469.679688 1660.761719 " fill-opacity="1" fill-rule="nonzero"/><path fill="#45291d" d="M 783.605469 1478.960938 C 783.605469 1478.960938 691.15625 1597.054688 667.777344 1604.605469 C 644.386719 1612.140625 598.125 1461.894531 598.125 1461.894531 L 783.605469 1478.960938 " fill-opacity="1" fill-rule="nonzero"/><path fill="#f68712" d="M 638.601562 1667.28125 C 639.882812 1681.632812 611.722656 1683.714844 609.898438 1667.28125 C 608.078125 1650.828125 603.136719 1620.832031 609.898438 1597.179688 C 616.648438 1573.542969 626.617188 1567.636719 633.660156 1564.675781 C 640.6875 1561.714844 667.65625 1564.886719 659.457031 1570.160156 C 651.238281 1575.46875 644.050781 1575.660156 638.601562 1597.179688 C 633.171875 1618.730469 637.339844 1652.914062 638.601562 1667.28125 " fill-opacity="1" fill-rule="nonzero"/><path fill="#f68712" d="M 667.324219 1667.28125 C 668.585938 1681.632812 640.441406 1683.714844 638.601562 1667.28125 C 636.78125 1650.828125 631.855469 1620.832031 638.601562 1597.179688 C 645.367188 1573.542969 655.335938 1567.636719 662.363281 1564.675781 C 669.410156 1561.714844 696.359375 1564.886719 688.15625 1570.160156 C 679.957031 1575.46875 672.773438 1575.660156 667.324219 1597.179688 C 661.875 1618.730469 666.0625 1652.914062 667.324219 1667.28125 " fill-opacity="1" fill-rule="nonzero"/><path fill="#f68712" d="M 696.027344 1667.28125 C 697.304688 1681.632812 669.144531 1683.714844 667.324219 1667.28125 C 665.5 1650.828125 660.558594 1620.832031 667.324219 1597.179688 C 674.085938 1573.542969 684.039062 1567.636719 691.085938 1564.675781 C 698.109375 1561.714844 725.078125 1564.886719 716.859375 1570.160156 C 708.660156 1575.46875 701.476562 1575.660156 696.027344 1597.179688 C 690.59375 1618.730469 694.765625 1652.914062 696.027344 1667.28125 " fill-opacity="1" fill-rule="nonzero"/><path fill="#5d382a" d="M 577.691406 1554.742188 C 731.929688 1554.742188 869.046875 1481.886719 956.769531 1368.769531 C 902.183594 1201.371094 753.132812 1081.191406 577.691406 1081.191406 C 402.253906 1081.191406 253.183594 1201.371094 198.601562 1368.769531 C 286.335938 1481.886719 423.457031 1554.742188 577.691406 1554.742188 " fill-opacity="1" fill-rule="nonzero"/><path fill="#553426" d="M 427.082031 1265.515625 C 415.640625 1250.414062 400.289062 1241.144531 383.378906 1241.144531 C 366.46875 1241.144531 351.121094 1250.414062 339.695312 1265.515625 C 349.210938 1241.707031 365.226562 1226.09375 383.378906 1226.09375 C 401.550781 1226.09375 417.566406 1241.707031 427.082031 1265.515625 " fill-opacity="1" fill-rule="nonzero"/><path fill="#553426" d="M 522.652344 1265.515625 C 511.210938 1250.414062 495.859375 1241.144531 478.949219 1241.144531 C 462.042969 1241.144531 446.691406 1250.414062 435.25 1265.515625 C 444.761719 1241.707031 460.796875 1226.09375 478.949219 1226.09375 C 497.121094 1226.09375 513.136719 1241.707031 522.652344 1265.515625 " fill-opacity="1" fill-rule="nonzero"/><path fill="#553426" d="M 618.222656 1265.515625 C 606.78125 1250.414062 591.429688 1241.144531 574.519531 1241.144531 C 557.613281 1241.144531 542.261719 1250.414062 530.800781 1265.515625 C 540.332031 1241.707031 556.367188 1226.09375 574.519531 1226.09375 C 592.691406 1226.09375 608.691406 1241.707031 618.222656 1265.515625 " fill-opacity="1" fill-rule="nonzero"/><path fill="#553426" d="M 713.777344 1265.515625 C 702.351562 1250.414062 686.984375 1241.144531 670.089844 1241.144531 C 653.183594 1241.144531 637.8125 1250.414062 626.390625 1265.515625 C 635.90625 1241.707031 651.921875 1226.09375 670.089844 1226.09375 C 688.246094 1226.09375 704.261719 1241.707031 713.777344 1265.515625 " fill-opacity="1" fill-rule="nonzero"/><path fill="#553426" d="M 467.699219 1219.75 C 456.257812 1204.628906 440.890625 1195.378906 424 1195.378906 C 407.089844 1195.378906 391.722656 1204.628906 380.296875 1219.75 C 389.8125 1195.9375 405.828125 1180.308594 424 1180.308594 C 442.152344 1180.308594 458.167969 1195.9375 467.699219 1219.75 " fill-opacity="1" fill-rule="nonzero"/><path fill="#553426" d="M 563.253906 1219.75 C 551.828125 1204.628906 536.460938 1195.378906 519.550781 1195.378906 C 502.660156 1195.378906 487.292969 1204.628906 475.847656 1219.75 C 485.363281 1195.9375 501.398438 1180.308594 519.550781 1180.308594 C 537.722656 1180.308594 553.738281 1195.9375 563.253906 1219.75 " fill-opacity="1" fill-rule="nonzero"/><path fill="#553426" d="M 567.335938 1177.945312 C 555.894531 1162.839844 540.542969 1153.574219 523.632812 1153.574219 C 506.742188 1153.574219 491.375 1162.839844 479.933594 1177.945312 C 489.464844 1154.152344 505.480469 1138.503906 523.632812 1138.503906 C 541.804688 1138.503906 557.820312 1154.152344 567.335938 1177.945312 " fill-opacity="1" fill-rule="nonzero"/><path fill="#553426" d="M 662.90625 1177.945312 C 651.464844 1162.839844 636.113281 1153.574219 619.203125 1153.574219 C 602.3125 1153.574219 586.945312 1162.839844 575.503906 1177.945312 C 585.035156 1154.152344 601.035156 1138.503906 619.203125 1138.503906 C 637.375 1138.503906 653.375 1154.152344 662.90625 1177.945312 " fill-opacity="1" fill-rule="nonzero"/><path fill="#553426" d="M 658.824219 1219.75 C 647.382812 1204.628906 632.03125 1195.378906 615.121094 1195.378906 C 598.210938 1195.378906 582.863281 1204.628906 571.4375 1219.75 C 580.953125 1195.9375 596.949219 1180.308594 615.121094 1180.308594 C 633.292969 1180.308594 649.292969 1195.9375 658.824219 1219.75 " fill-opacity="1" fill-rule="nonzero"/><path fill="#553426" d="M 754.394531 1219.75 C 742.96875 1204.628906 727.601562 1195.378906 710.691406 1195.378906 C 693.78125 1195.378906 678.433594 1204.628906 666.988281 1219.75 C 676.503906 1195.9375 692.539062 1180.308594 710.691406 1180.308594 C 728.863281 1180.308594 744.878906 1195.9375 754.394531 1219.75 " fill-opacity="1" fill-rule="nonzero"/><path fill="#553426" d="M 809.347656 1265.515625 C 797.921875 1250.414062 782.554688 1241.144531 765.664062 1241.144531 C 748.753906 1241.144531 733.386719 1250.414062 721.941406 1265.515625 C 731.476562 1241.707031 747.492188 1226.09375 765.664062 1226.09375 C 783.816406 1226.09375 799.832031 1241.707031 809.347656 1265.515625 " fill-opacity="1" fill-rule="nonzero"/><path fill="#553426" d="M 471.941406 1314.714844 C 460.515625 1299.613281 445.148438 1290.363281 428.238281 1290.363281 C 411.890625 1290.363281 396.960938 1299.035156 385.660156 1313.28125 C 385.570312 1313.070312 385.484375 1312.859375 385.394531 1312.667969 C 395 1290.011719 410.609375 1275.277344 428.238281 1275.277344 C 446.410156 1275.277344 462.425781 1290.90625 471.941406 1314.714844 M 384.554688 1314.714844 C 384.746094 1314.226562 384.941406 1313.753906 385.132812 1313.28125 C 385.21875 1313.402344 385.308594 1313.507812 385.394531 1313.613281 C 385.113281 1313.980469 384.835938 1314.347656 384.554688 1314.714844 " fill-opacity="1" fill-rule="nonzero"/><path fill="#553426" d="M 566.671875 1315.558594 C 555.226562 1300.453125 539.878906 1291.183594 522.96875 1291.183594 C 506.078125 1291.183594 490.707031 1300.453125 479.265625 1315.558594 C 488.796875 1291.746094 504.816406 1276.132812 522.96875 1276.132812 C 541.140625 1276.132812 557.15625 1291.746094 566.671875 1315.558594 " fill-opacity="1" fill-rule="nonzero"/><path fill="#553426" d="M 662.242188 1315.558594 C 650.800781 1300.453125 635.429688 1291.183594 618.539062 1291.183594 C 601.628906 1291.183594 586.277344 1300.453125 574.835938 1315.558594 C 584.351562 1291.746094 600.367188 1276.132812 618.539062 1276.132812 C 636.691406 1276.132812 652.707031 1291.746094 662.242188 1315.558594 " fill-opacity="1" fill-rule="nonzero"/><path fill="#553426" d="M 757.8125 1315.558594 C 746.371094 1300.453125 731 1291.183594 714.109375 1291.183594 C 697.199219 1291.183594 681.851562 1300.453125 670.40625 1315.558594 C 679.921875 1291.746094 695.9375 1276.132812 714.109375 1276.132812 C 732.261719 1276.132812 748.28125 1291.746094 757.8125 1315.558594 " fill-opacity="1" fill-rule="nonzero"/><path fill="#553426" d="M 853.050781 1315.871094 C 841.605469 1300.769531 826.257812 1291.519531 809.347656 1291.519531 C 792.4375 1291.519531 777.085938 1300.769531 765.664062 1315.871094 C 775.175781 1292.078125 791.175781 1276.433594 809.347656 1276.433594 C 827.519531 1276.433594 843.535156 1292.078125 853.050781 1315.871094 " fill-opacity="1" fill-rule="nonzero"/><path fill="#553426" d="M 386.238281 1314.714844 C 385.957031 1314.347656 385.675781 1313.980469 385.394531 1313.613281 C 385.308594 1313.507812 385.21875 1313.402344 385.132812 1313.28125 C 373.832031 1299.035156 358.902344 1290.363281 342.535156 1290.363281 C 325.640625 1290.363281 310.292969 1299.613281 298.832031 1314.714844 C 308.363281 1290.90625 324.378906 1275.277344 342.535156 1275.277344 C 360.179688 1275.277344 375.792969 1290.011719 385.394531 1312.667969 C 385.484375 1312.859375 385.570312 1313.070312 385.660156 1313.28125 C 385.851562 1313.753906 386.042969 1314.226562 386.238281 1314.714844 " fill-opacity="1" fill-rule="nonzero"/><path fill="#553426" d="M 469.890625 1423.15625 C 458.449219 1408.035156 443.097656 1398.785156 426.1875 1398.785156 C 409.296875 1398.785156 393.929688 1408.035156 382.503906 1423.15625 C 392.019531 1399.34375 408.035156 1383.714844 426.1875 1383.714844 C 444.359375 1383.714844 460.375 1399.34375 469.890625 1423.15625 " fill-opacity="1" fill-rule="nonzero"/><path fill="#553426" d="M 564.621094 1423.996094 C 553.179688 1408.894531 537.808594 1399.625 520.917969 1399.625 C 504.007812 1399.625 488.660156 1408.894531 477.214844 1423.996094 C 486.730469 1400.1875 502.746094 1384.558594 520.917969 1384.558594 C 539.070312 1384.558594 555.089844 1400.1875 564.621094 1423.996094 " fill-opacity="1" fill-rule="nonzero"/><path fill="#553426" d="M 660.191406 1423.996094 C 648.730469 1408.894531 633.382812 1399.625 616.472656 1399.625 C 599.578125 1399.625 584.210938 1408.894531 572.785156 1423.996094 C 582.300781 1400.1875 598.316406 1384.558594 616.472656 1384.558594 C 634.644531 1384.558594 650.660156 1400.1875 660.191406 1423.996094 " fill-opacity="1" fill-rule="nonzero"/><path fill="#553426" d="M 521.339844 1474.25 C 509.894531 1459.144531 494.527344 1449.875 477.636719 1449.875 C 460.726562 1449.875 445.359375 1459.144531 433.933594 1474.25 C 443.449219 1450.4375 459.464844 1434.824219 477.636719 1434.824219 C 495.789062 1434.824219 511.804688 1450.4375 521.339844 1474.25 " fill-opacity="1" fill-rule="nonzero"/><path fill="#553426" d="M 616.050781 1475.105469 C 604.625 1460.003906 589.257812 1450.734375 572.347656 1450.734375 C 555.4375 1450.734375 540.089844 1460.003906 528.664062 1475.105469 C 538.179688 1451.296875 554.195312 1435.667969 572.347656 1435.667969 C 590.519531 1435.667969 606.535156 1451.296875 616.050781 1475.105469 " fill-opacity="1" fill-rule="nonzero"/><path fill="#553426" d="M 711.621094 1475.105469 C 700.195312 1460.003906 684.8125 1450.734375 667.917969 1450.734375 C 651.027344 1450.734375 635.660156 1460.003906 624.214844 1475.105469 C 633.75 1451.296875 649.765625 1435.667969 667.917969 1435.667969 C 686.074219 1435.667969 702.105469 1451.296875 711.621094 1475.105469 " fill-opacity="1" fill-rule="nonzero"/><path fill="#553426" d="M 755.742188 1423.996094 C 744.320312 1408.894531 728.953125 1399.625 712.042969 1399.625 C 695.148438 1399.625 679.78125 1408.894531 668.339844 1423.996094 C 677.855469 1400.1875 693.886719 1384.558594 712.042969 1384.558594 C 730.214844 1384.558594 746.230469 1400.1875 755.742188 1423.996094 " fill-opacity="1" fill-rule="nonzero"/><path fill="#553426" d="M 509.335938 1367.019531 C 497.910156 1351.933594 482.542969 1342.664062 465.652344 1342.664062 C 449.265625 1342.664062 434.355469 1351.355469 423.050781 1365.597656 C 422.964844 1365.386719 422.878906 1365.179688 422.789062 1364.96875 C 432.390625 1342.332031 448.003906 1327.59375 465.652344 1327.59375 C 483.804688 1327.59375 499.820312 1343.222656 509.335938 1367.019531 M 421.949219 1367.019531 C 422.140625 1366.542969 422.332031 1366.070312 422.527344 1365.597656 C 422.613281 1365.703125 422.703125 1365.808594 422.789062 1365.929688 C 422.507812 1366.28125 422.230469 1366.648438 421.949219 1367.019531 " fill-opacity="1" fill-rule="nonzero"/><path fill="#553426" d="M 604.484375 1367.457031 C 593.042969 1352.351562 577.691406 1343.082031 560.78125 1343.082031 C 543.875 1343.082031 528.523438 1352.351562 517.097656 1367.457031 C 526.613281 1343.644531 542.628906 1328.015625 560.78125 1328.015625 C 578.953125 1328.015625 594.96875 1343.644531 604.484375 1367.457031 " fill-opacity="1" fill-rule="nonzero"/><path fill="#553426" d="M 700.054688 1367.457031 C 688.632812 1352.351562 673.261719 1343.082031 656.355469 1343.082031 C 639.460938 1343.082031 624.09375 1352.351562 612.652344 1367.457031 C 622.167969 1343.644531 638.183594 1328.015625 656.355469 1328.015625 C 674.523438 1328.015625 690.542969 1343.644531 700.054688 1367.457031 " fill-opacity="1" fill-rule="nonzero"/><path fill="#553426" d="M 795.625 1367.457031 C 784.183594 1352.351562 768.832031 1343.082031 751.925781 1343.082031 C 735.015625 1343.082031 719.664062 1352.351562 708.222656 1367.457031 C 717.753906 1343.644531 733.753906 1328.015625 751.925781 1328.015625 C 770.078125 1328.015625 786.09375 1343.644531 795.625 1367.457031 " fill-opacity="1" fill-rule="nonzero"/><path fill="#553426" d="M 423.628906 1367.019531 C 423.367188 1366.648438 423.070312 1366.28125 422.789062 1365.929688 C 422.703125 1365.808594 422.613281 1365.703125 422.527344 1365.597656 C 411.207031 1351.355469 396.292969 1342.664062 379.929688 1342.664062 C 363.035156 1342.664062 347.6875 1351.933594 336.242188 1367.019531 C 345.757812 1343.222656 361.757812 1327.59375 379.929688 1327.59375 C 397.574219 1327.59375 413.1875 1342.332031 422.789062 1364.96875 C 422.878906 1365.179688 422.964844 1365.386719 423.050781 1365.597656 C 423.246094 1366.070312 423.457031 1366.542969 423.628906 1367.019531 " fill-opacity="1" fill-rule="nonzero"/><path fill="#29242c" d="M 790.703125 382.003906 C 790.703125 382.003906 656.355469 343.367188 575.886719 442.207031 C 474.203125 337.570312 361.039062 382.003906 361.039062 382.003906 L 361.039062 193.492188 C 361.039062 193.492188 408.175781 159.042969 575.871094 159.042969 C 743.566406 159.042969 790.703125 193.492188 790.703125 193.492188 L 790.703125 382.003906 " fill-opacity="1" fill-rule="nonzero"/><path fill="#130f11" d="M 599.4375 305.871094 L 161.433594 133.425781 L 161.433594 141.90625 L 602.15625 329.457031 L 965.074219 137.300781 L 965.074219 127.242188 L 599.4375 305.871094 " fill-opacity="1" fill-rule="nonzero"/><g clip-path="url(#79c72e610f)"><path fill="#1a161a" d="M 599.4375 305.871094 L 161.433594 133.425781 L 590.378906 0.441406 L 965.074219 127.242188 L 599.4375 305.871094 " fill-opacity="1" fill-rule="nonzero"/></g><path fill="#130f11" d="M 636.378906 133.21875 C 636.378906 141.488281 617.609375 148.179688 594.460938 148.179688 C 571.296875 148.179688 552.546875 141.488281 552.546875 133.21875 C 552.546875 124.964844 571.296875 118.269531 594.460938 118.269531 C 617.609375 118.269531 636.378906 124.964844 636.378906 133.21875 " fill-opacity="1" fill-rule="nonzero"/><path fill="#f68712" d="M 918.847656 157.097656 C 918.324219 151.246094 914.644531 150.546875 914.644531 150.546875 L 627.160156 122.511719 L 632.066406 133.007812 L 893.597656 159.429688 C 893.597656 159.429688 898.292969 159.324219 898.503906 165.875 C 898.695312 172.449219 904.234375 354.828125 904.234375 354.828125 L 913.066406 354.828125 L 918.847656 157.097656 " fill-opacity="1" fill-rule="nonzero"/><path fill="#29242c" d="M 632.066406 133.007812 C 628.457031 136.40625 615.226562 142.519531 594.460938 142.519531 C 573.679688 142.519531 560.46875 136.84375 556.839844 133.007812 C 556.839844 124.753906 574.589844 106.726562 595.355469 106.726562 C 616.136719 106.726562 632.066406 124.753906 632.066406 133.007812 " fill-opacity="1" fill-rule="nonzero"/><path fill="#f9a72b" d="M 923.949219 320.398438 C 923.949219 328.386719 917.445312 334.886719 909.4375 334.886719 C 901.429688 334.886719 894.945312 328.386719 894.945312 320.398438 C 894.945312 312.371094 901.429688 305.871094 909.4375 305.871094 C 917.445312 305.871094 923.949219 312.371094 923.949219 320.398438 " fill-opacity="1" fill-rule="nonzero"/><path fill="#f9a72b" d="M 937.84375 497.503906 L 916.726562 502.792969 L 911.453125 497.503906 L 911.980469 502.792969 L 886.640625 502.792969 L 886.640625 497.503906 L 876.09375 497.503906 C 876.09375 497.503906 891.40625 403.589844 895.613281 372.960938 C 899.851562 342.371094 918.007812 346.488281 921.476562 372.960938 C 924.945312 399.472656 937.84375 497.503906 937.84375 497.503906 " fill-opacity="1" fill-rule="nonzero"/><path fill="#f58021" d="M 886.640625 502.792969 L 899.082031 389.871094 L 890.601562 502.792969 Z M 886.640625 502.792969 " fill-opacity="1" fill-rule="nonzero"/><path fill="#f58021" d="M 911.980469 502.792969 L 909.210938 431.832031 L 906.96875 502.792969 Z M 911.980469 502.792969 " fill-opacity="1" fill-rule="nonzero"/><path fill="#f58021" d="M 916.726562 502.792969 L 911.980469 376.414062 L 920.6875 501.339844 Z M 916.726562 502.792969 " fill-opacity="1" fill-rule="nonzero"/><path fill="#f58021" d="M 904.058594 368.089844 C 904.058594 368.089844 901.691406 395.003906 902.078125 412.035156 C 902.480469 429.046875 903.058594 450.421875 903.058594 450.421875 C 903.058594 450.421875 903.65625 419.550781 904.058594 411.632812 C 904.460938 403.710938 904.058594 368.089844 904.058594 368.089844 " fill-opacity="1" fill-rule="nonzero"/></svg>